# xmcd CD database file
#
# Track frame offsets:
#	150
#	21308
#	42329
#	63363
#
# Disc length: 1122 seconds
#
# Revision: 13
# Processed by: cddbd v1.5.2PL0 Copyright (c) Steve Scherf et al.
# Submitted via: CD2WAV32(JP) R3.22
#
DISCID=2f046004
DTITLE=Perfume - Baby cruising Love
DYEAR=2008
DGENRE=Techno
TTITLE0=Baby cruising Love
TTITLE1=マカロニ
TTITLE2=Baby cruising Love ～Original Instrumental～
TTITLE3=マカロニ ～Original Instrumental～
EXTD=
EXTT0=
EXTT1=
EXTT2=
EXTT3=
PLAYORDER=
